# xmcd
#
# Track frame offsets: 
#        150
#        12341
#        22235
#        30626
#        41438
#        53061
#        65294
#        73079
#        80652
#        88182
#        96755
#        106421
#        112539
#        120059
#        128098
#        136462
#        143864
#        151204
#        158072
#        167327
#
# Disc length: 2358 seconds
#
# Revision: 0
# Processed by: cddbd v1.5.2PL0 Copyright (c) Steve Scherf et al.
# Submitted via: ExactAudioCopy v0.99pb3
#
DISCID=f9093414
DTITLE=Autry, Gene - 80 Originals Hits and Rarities CD 2
DYEAR=2010
DGENRE=Country
TTITLE0=Don't Hang Around Me Anymore
TTITLE1=I'll Be Back
TTITLE2=Silver Spurs
TTITLE3=I Wish I Had Never Met Sunshine
TTITLE4=You Only Want Me When You're Lonely
TTITLE5=You're Not My Darlin' Anymore
TTITLE6=Oklahoma Hills
TTITLE7=Sioux City Sue
TTITLE8=Someday You'll Want Me To Want You
TTITLE9=Gonna Built A Big Fence Around Texas
TTITLE10=The Old Lamplighter
TTITLE11=San Fernando Valley
TTITLE12=I'm A Fool To Care
TTITLE13=Goodbye Little Darling Goodbye
TTITLE14=You Can't See The Sun When You're Crying
TTITLE15=I Tipped My Hat And Slowly Rode Away
TTITLE16=The Angel Song
TTITLE17=One Hundred And Sixty Acres
TTITLE18=At Sundown
TTITLE19=It Happened In Monterey
EXTD=
EXTT0=
EXTT1=
EXTT2=
EXTT3=
EXTT4=
EXTT5=
EXTT6=
EXTT7=
EXTT8=
EXTT9=
EXTT10=
EXTT11=
EXTT12=
EXTT13=
EXTT14=
EXTT15=
EXTT16=
EXTT17=
EXTT18=
EXTT19=
PLAYORDER=
